<svg id="PetFriendlyIcon" xmlns="http://www.w3.org/2000/svg" width="19.402" height="19.86" viewBox="0 0 19.402 19.86">
  <path id="Path_59" data-name="Path 59" d="M19.4,0H0V19.86H19.4Z" fill="none"/>
  <ellipse id="Ellipse_11" data-name="Ellipse 11" cx="1.954" cy="2" rx="1.954" ry="2" transform="translate(13.54 6)" fill="#adadad"/>
  <ellipse id="Ellipse_12" data-name="Ellipse 12" cx="2.021" cy="2.069" rx="2.021" ry="2.069" transform="translate(10.105 2.482)" fill="#adadad"/>
  <ellipse id="Ellipse_13" data-name="Ellipse 13" cx="2.021" cy="2.069" rx="2.021" ry="2.069" transform="translate(5.255 2.482)" fill="#adadad"/>
  <ellipse id="Ellipse_14" data-name="Ellipse 14" cx="1.954" cy="2" rx="1.954" ry="2" transform="translate(1.817 6)" fill="#adadad"/>
  <path id="Path_60" data-name="Path 60" d="M6.135,14.108c.7-.844,1.293-1.564,2-2.408a3.439,3.439,0,0,1,1.415-1.092,1.607,1.607,0,0,1,.267-.074,3.976,3.976,0,0,1,.631-.033,3.314,3.314,0,0,1,.639.041,1.607,1.607,0,0,1,.267.074,3.492,3.492,0,0,1,1.415,1.092c.7.844,1.293,1.564,2,2.408,1.059,1.084,2.361,2.284,2.118,3.964A2.57,2.57,0,0,1,15.011,20c-.59.124-2.474-.364-4.479-.364h-.146c-2,0-3.888.48-4.479.364a2.582,2.582,0,0,1-1.884-1.92c-.251-1.688,1.051-2.888,2.11-3.972Z" transform="translate(-0.751 -1.811)" fill="#adadad"/>
</svg>
