<svg xmlns="http://www.w3.org/2000/svg" width="16.088" height="15.664" viewBox="0 0 16.088 15.664"><g transform="translate(-58 -25.333)"><path d="M15.814,24.666a10.722,10.722,0,0,0-15.54,0,1,1,0,0,0,0,1.373l1.546,1.6a.974.974,0,0,0,1.371,0,6.782,6.782,0,0,1,1.744-1.31A.96.96,0,0,0,5.46,25.5l.233-1.735a7.055,7.055,0,0,1,4.7,0l.23,1.692a.99.99,0,0,0,.519.874,6.8,6.8,0,0,1,1.747,1.312.951.951,0,0,0,1.371,0l1.55-1.606A1,1,0,0,0,15.814,24.666Z" transform="translate(58 4)" fill="#2d3447"/><path d="M53.764,192.874A1.683,1.683,0,0,0,52.281,192H46.5a1.683,1.683,0,0,0-1.483.874l-2.152,3.962a1.635,1.635,0,0,0-.2.777v2.311a1.334,1.334,0,0,0,1.345,1.321H54.769a1.334,1.334,0,0,0,1.345-1.321v-2.311a1.638,1.638,0,0,0-.2-.777Zm-6.392,6.39a.66.66,0,1,1,.672-.66A.667.667,0,0,1,47.373,199.264Zm0-1.981a.66.66,0,1,1,.672-.66A.667.667,0,0,1,47.373,197.283Zm0-1.981a.66.66,0,1,1,.672-.66A.667.667,0,0,1,47.373,195.3Zm2.018,3.962a.66.66,0,1,1,.672-.66A.667.667,0,0,1,49.39,199.264Zm0-1.981a.66.66,0,1,1,.672-.66A.667.667,0,0,1,49.39,197.283Zm0-1.981a.66.66,0,1,1,.672-.66A.667.667,0,0,1,49.39,195.3Zm2.016,3.962a.66.66,0,1,1,.672-.66A.667.667,0,0,1,51.407,199.264Zm0-1.981a.66.66,0,1,1,.672-.66A.667.667,0,0,1,51.407,197.283Zm0-1.981a.66.66,0,1,1,.672-.66A.667.667,0,0,1,51.407,195.3Z" transform="translate(16.654 -160.247)" fill="#2d3447"/></g></svg>