<svg xmlns="http://www.w3.org/2000/svg" width="20.973" height="20" viewBox="0 0 20.973 20">
  <path id="ACIcon" d="M8.952,18.24a.931.931,0,0,1,.278-.663A.9.9,0,0,1,9.9,17.3a.927.927,0,0,1,.682.278.909.909,0,0,1,.278.663.85.85,0,0,1-.278.636.974.974,0,0,1-1.336,0A.81.81,0,0,1,8.952,18.24Zm2.756,0a.931.931,0,0,1,.278-.663.9.9,0,0,1,.668-.278h4.5l-3.173-3.022a.772.772,0,0,1-.292-.623A.863.863,0,0,1,13.976,13a.975.975,0,0,1,1.364,0L18.5,16.013V11.759a.891.891,0,0,1,.292-.663.959.959,0,0,1,.7-.278.9.9,0,0,1,.668.278.909.909,0,0,1,.278.663V16.04l3.187-3.048a.942.942,0,0,1,.668-.278.974.974,0,0,1,.682.278.933.933,0,0,1,.251.649.828.828,0,0,1-.251.623L21.8,17.286h4.5a.888.888,0,0,1,.654.278.909.909,0,0,1,.278.663.843.843,0,0,1-.278.623.928.928,0,0,1-.654.265H21.8l3.187,3.035a.828.828,0,0,1,.251.623.933.933,0,0,1-.251.649.974.974,0,0,1-.682.278.919.919,0,0,1-.668-.278l-3.187-3.048v4.294a.879.879,0,0,1-.278.649.937.937,0,0,1-.668.265,1.03,1.03,0,0,1-.7-.265.843.843,0,0,1-.292-.649V20.4l-3.159,3.009a.975.975,0,0,1-1.364,0,.863.863,0,0,1-.292-.649.79.79,0,0,1,.292-.623l3.2-3.035H12.682a.937.937,0,0,1-.668-.265A.668.668,0,0,1,11.708,18.24Zm.014,6.415a.836.836,0,0,1,.292-.636.845.845,0,0,1,.654-.278.95.95,0,0,1,.682.278.857.857,0,0,1,.292.636.836.836,0,0,1-.292.636.95.95,0,0,1-.682.278.845.845,0,0,1-.654-.278A.816.816,0,0,1,11.721,24.655Zm0-12.869a.836.836,0,0,1,.292-.636.845.845,0,0,1,.654-.278.95.95,0,0,1,.682.278.857.857,0,0,1,.292.636.884.884,0,0,1-.292.649.95.95,0,0,1-.682.278.845.845,0,0,1-.654-.278A.884.884,0,0,1,11.721,11.785Zm6.75,15.52a.81.81,0,0,1,.292-.623,1,1,0,0,1,.7-.265.937.937,0,0,1,.668.265.843.843,0,0,1,.278.623.879.879,0,0,1-.278.649.937.937,0,0,1-.668.265,1.03,1.03,0,0,1-.7-.265A.824.824,0,0,1,18.471,27.305Zm0-18.171a.843.843,0,0,1,.292-.649,1,1,0,0,1,.7-.265.937.937,0,0,1,.668.265.879.879,0,0,1,.278.649.843.843,0,0,1-.278.623.937.937,0,0,1-.668.265,1.03,1.03,0,0,1-.7-.265A.81.81,0,0,1,18.471,9.135Zm6.777,15.52a.836.836,0,0,1,.292-.636.845.845,0,0,1,.654-.278.95.95,0,0,1,.682.278.857.857,0,0,1,.292.636.836.836,0,0,1-.292.636.95.95,0,0,1-.682.278.845.845,0,0,1-.654-.278A.816.816,0,0,1,25.249,24.655Zm0-12.869a.836.836,0,0,1,.292-.636.845.845,0,0,1,.654-.278.95.95,0,0,1,.682.278.857.857,0,0,1,.292.636.884.884,0,0,1-.292.649.95.95,0,0,1-.682.278.845.845,0,0,1-.654-.278A.884.884,0,0,1,25.249,11.785Zm2.783,6.455a.95.95,0,0,1,.96-.941.888.888,0,0,1,.654.278.909.909,0,0,1,.278.663.843.843,0,0,1-.278.623.928.928,0,0,1-.654.265.971.971,0,0,1-.682-.265A.843.843,0,0,1,28.032,18.24Z" transform="translate(-8.952 -8.22)" fill="#ed702d"/>
</svg>
