<svg xmlns="http://www.w3.org/2000/svg" xmlns:xlink="http://www.w3.org/1999/xlink" width="28" height="28" viewBox="0 0 28 28"><defs><linearGradient id="a" x1="0.212" x2="0.899" y2="1" gradientUnits="objectBoundingBox"><stop offset="0" stop-color="#a8dcfe"/><stop offset="1" stop-color="#39a1fa"/></linearGradient><linearGradient id="b" x1="0.5" x2="0.5" y2="1" gradientUnits="objectBoundingBox"><stop offset="0" stop-color="#fff" stop-opacity="0.678"/><stop offset="1" stop-color="#fff"/></linearGradient></defs><g transform="translate(-327 -534)"><rect width="28" height="28" rx="10" transform="translate(327 534)" fill="url(#a)"/><path d="M13.432,3.791a6.362,6.362,0,0,0-9,9,6.362,6.362,0,0,0,9-9Zm.273,4.5a4.746,4.746,0,0,1-.884,2.763L6.17,4.4A4.769,4.769,0,0,1,13.7,8.29Zm-9.543,0a4.746,4.746,0,0,1,.884-2.763L11.7,12.178A4.77,4.77,0,0,1,4.161,8.29Z" transform="translate(332.43 540.072)" fill="url(#b)"/></g></svg>