<svg xmlns="http://www.w3.org/2000/svg" width="19.539" height="20" viewBox="0 0 19.539 20">
  <path id="CleaningIcon" d="M23.464,20.163a16.39,16.39,0,0,0-3.428-2.348c-1.027-.505-1.4-.495-2.131.042-.605.448-1,.864-1.694.708a10.114,10.114,0,0,1-3.4-2.577A10.267,10.267,0,0,1,10.291,12.5c-.148-.719.259-1.114.692-1.734.524-.745.539-1.13.041-2.182A16.5,16.5,0,0,0,8.729,5.079c-.748-.765-.916-.6-1.328-.448a7.492,7.492,0,0,0-1.216.661A3.721,3.721,0,0,0,4.726,6.87C4.436,7.51,4.1,8.7,5.81,11.816a27.558,27.558,0,0,0,4.741,6.472h0l.005.005.005.005h0a27.13,27.13,0,0,0,6.322,4.853c3.042,1.75,4.206,1.406,4.832,1.109a3.64,3.64,0,0,0,1.541-1.494,7.8,7.8,0,0,0,.646-1.244C24.049,21.1,24.217,20.928,23.464,20.163Z" transform="translate(-4.49 -4.502)" fill="#adadad"/>
</svg>
