<svg xmlns="http://www.w3.org/2000/svg" xmlns:xlink="http://www.w3.org/1999/xlink" width="28" height="28" viewBox="0 0 28 28"><defs><linearGradient id="a" x1="0.212" x2="0.899" y2="1" gradientUnits="objectBoundingBox"><stop offset="0" stop-color="#b7c0ff"/><stop offset="1" stop-color="#7577ff"/></linearGradient><linearGradient id="b" x1="0.5" x2="0.5" y2="1" gradientUnits="objectBoundingBox"><stop offset="0" stop-color="#fff" stop-opacity="0.678"/><stop offset="1" stop-color="#fff"/></linearGradient></defs><g transform="translate(-327 -466)"><rect width="28" height="28" rx="10" transform="translate(327 466)" fill="url(#a)"/><path d="M8.695,1.656H6.625a1.656,1.656,0,0,0-3.312,0H1.242A1.242,1.242,0,0,0,0,2.9v9.109A1.242,1.242,0,0,0,1.242,13.25H8.695a1.242,1.242,0,0,0,1.242-1.242V2.9A1.242,1.242,0,0,0,8.695,1.656ZM2.484,10.972a.621.621,0,1,1,.621-.621A.62.62,0,0,1,2.484,10.972Zm0-2.484a.621.621,0,1,1,.621-.621A.62.62,0,0,1,2.484,8.488ZM2.484,6a.621.621,0,1,1,.621-.621A.62.62,0,0,1,2.484,6ZM4.969,1.035a.621.621,0,1,1-.621.621A.62.62,0,0,1,4.969,1.035Zm3.312,9.523a.208.208,0,0,1-.207.207H4.347a.208.208,0,0,1-.207-.207v-.414a.208.208,0,0,1,.207-.207H8.074a.208.208,0,0,1,.207.207Zm0-2.484a.208.208,0,0,1-.207.207H4.347a.208.208,0,0,1-.207-.207V7.66a.208.208,0,0,1,.207-.207H8.074a.208.208,0,0,1,.207.207Zm0-2.484a.208.208,0,0,1-.207.207H4.347A.208.208,0,0,1,4.14,5.59V5.176a.208.208,0,0,1,.207-.207H8.074a.208.208,0,0,1,.207.207Z" transform="translate(336 473)" fill="url(#b)"/></g></svg>