<svg xmlns="http://www.w3.org/2000/svg" xmlns:xlink="http://www.w3.org/1999/xlink" width="28" height="28" viewBox="0 0 28 28"><defs><linearGradient id="a" x1="0.212" x2="0.899" y2="1" gradientUnits="objectBoundingBox"><stop offset="0" stop-color="#ffb0be"/><stop offset="1" stop-color="#ff6db4"/></linearGradient><linearGradient id="b" x1="0.5" x2="0.5" y2="1" gradientUnits="objectBoundingBox"><stop offset="0" stop-color="#fff" stop-opacity="0.678"/><stop offset="1" stop-color="#fff"/></linearGradient></defs><g transform="translate(-327 -330)"><rect width="28" height="28" rx="10" transform="translate(327 330)" fill="url(#a)"/><g transform="translate(330.5 333.5)"><path d="M27.635,4.5h-.621a1.207,1.207,0,0,1,.675,1.263V14.6c0,.654-.207,1.1-.675,1.263h.621A1.265,1.265,0,0,0,28.9,14.6V5.763A1.265,1.265,0,0,0,27.635,4.5Z" transform="translate(-13.039)" fill="url(#b)"/><path d="M12.83,4.506c-.041,0-.083-.006-.124-.006H5.763A1.267,1.267,0,0,0,4.5,5.763V14.6a1.267,1.267,0,0,0,1.263,1.263h6.945c.041,0,.083,0,.124-.006A1.268,1.268,0,0,0,13.972,14.6V5.763A1.273,1.273,0,0,0,12.83,4.506ZM8.761,10.181,7.1,9.234l-1.657.947V5.447H8.761Z" fill="url(#b)"/></g></g></svg>