<svg xmlns="http://www.w3.org/2000/svg" width="93" height="56" viewBox="0 0 93 56"><defs><style>.a{fill:#fff;stroke:#f5f4f4;}.b{stroke:none;}.c{fill:none;}</style></defs><g transform="translate(-0.111)"><g transform="translate(0)"><g class="a" transform="translate(0.111)"><rect class="b" width="93" height="56" rx="9"/><rect class="c" x="0.5" y="0.5" width="92" height="55" rx="8.5"/></g><g transform="translate(10.338 12.416)"><path d="M13.869,4.018A5.607,5.607,0,0,0,15.147,0a5.786,5.786,0,0,0-3.713,1.887,5.292,5.292,0,0,0-1.339,3.835,4.372,4.372,0,0,0,3.774-1.7m1.278,2.07c-2.07-.122-3.835,1.157-4.809,1.157s-2.5-1.1-4.139-1.1A6.107,6.107,0,0,0,1.025,9.314c-2.191,3.835-.609,9.5,1.583,12.6,1.035,1.522,2.313,3.226,3.957,3.165,1.583-.061,2.191-1.035,4.079-1.035s2.435,1.035,4.139.974,2.8-1.522,3.835-3.1a12.26,12.26,0,0,0,1.7-3.531,5.515,5.515,0,0,1-.67-9.8,5.668,5.668,0,0,0-4.5-2.5" transform="translate(0.026)"/><g transform="translate(24.427 1.765)"><path d="M48.744,2.9a7.238,7.238,0,0,1,7.609,7.548,7.318,7.318,0,0,1-7.731,7.609H43.692v7.853H40.1V2.9ZM43.692,15.075H47.77c3.1,0,4.87-1.7,4.87-4.566,0-2.922-1.765-4.566-4.87-4.566H43.631v9.131Zm13.575,6.148c0-2.922,2.252-4.748,6.27-4.992l4.626-.243V14.71c0-1.887-1.278-2.983-3.348-2.983-2.009,0-3.226.974-3.531,2.435H58c.183-3.044,2.8-5.3,6.94-5.3,4.079,0,6.7,2.131,6.7,5.54V25.971H68.346V23.232h-.061a5.965,5.965,0,0,1-5.3,3.044C59.58,26.276,57.267,24.206,57.267,21.223Zm10.9-1.522V18.362l-4.139.243c-2.07.122-3.226,1.035-3.226,2.5s1.217,2.435,3.044,2.435A4.024,4.024,0,0,0,68.163,19.7Zm6.514,12.479v-2.8a6.616,6.616,0,0,0,1.1.061c1.583,0,2.435-.67,2.983-2.374,0-.061.3-1.035.3-1.035l-6.087-16.8h3.713l4.261,13.7h.061l4.261-13.7h3.652l-6.27,17.715c-1.461,4.079-3.1,5.357-6.574,5.357-.243-.061-1.1-.061-1.4-.122Z" transform="translate(-40.1 -2.9)"/></g></g></g></g></svg>