<svg xmlns="http://www.w3.org/2000/svg" width="16.949" height="13.317" viewBox="0 0 16.949 13.317"><g transform="translate(-138.22 -474.924)"><g transform="translate(138.22 474.924)"><path d="M18.375,14.625h-.015a.827.827,0,0,0-.825.825.084.084,0,0,1-.083.083H4a.084.084,0,0,1-.083-.083.827.827,0,0,0-.825-.825H3.075a.827.827,0,0,0-.825.825v6.825a.827.827,0,0,0,.825.825H3.09a.827.827,0,0,0,.825-.825V22.04a.152.152,0,0,1,.151-.151H17.383a.152.152,0,0,1,.151.151v.235a.827.827,0,0,0,.825.825h.015a.827.827,0,0,0,.825-.825V15.45A.827.827,0,0,0,18.375,14.625Z" transform="translate(-2.25 -9.782)" fill="#adadad"/><path d="M5.646,10.695H6.5a.152.152,0,0,0,.151-.151v-.492a.607.607,0,0,1,.605-.605h3.689a.607.607,0,0,1,.605.605v.492a.152.152,0,0,0,.151.151h.908a.152.152,0,0,0,.151-.151v-.492a.607.607,0,0,1,.605-.605h3.689a.607.607,0,0,1,.605.605v.492a.152.152,0,0,0,.151.151h.851a.3.3,0,0,0,.3-.3V6.836a1.214,1.214,0,0,0-1.211-1.211H6.554A1.214,1.214,0,0,0,5.344,6.836v3.556A.3.3,0,0,0,5.646,10.695Z" transform="translate(-3.679 -5.625)" fill="#adadad"/></g></g></svg>