<svg xmlns="http://www.w3.org/2000/svg" width="11.995" height="13.708" viewBox="0 0 11.995 13.708"><defs><style>.a{fill:#ed702d;}</style></defs><path class="a" d="M11.673,4.284H.321A.322.322,0,0,1,0,3.963V3A1.285,1.285,0,0,1,1.285,1.714H2.57V.321A.322.322,0,0,1,2.892,0H3.963a.322.322,0,0,1,.321.321V1.714H7.711V.321A.322.322,0,0,1,8.032,0H9.1a.322.322,0,0,1,.321.321V1.714h1.285A1.285,1.285,0,0,1,11.995,3v.964A.322.322,0,0,1,11.673,4.284ZM.321,5.141H11.673a.322.322,0,0,1,.321.321v6.961a1.285,1.285,0,0,1-1.285,1.285H1.285A1.285,1.285,0,0,1,0,12.423V5.462A.322.322,0,0,1,.321,5.141ZM7.21,9.424,8.5,8.137a.322.322,0,0,0,0-.455L7.74,6.924a.322.322,0,0,0-.455,0L6,8.211,4.709,6.924a.322.322,0,0,0-.455,0L3.5,7.681a.322.322,0,0,0,0,.455L4.784,9.424,3.5,10.712a.322.322,0,0,0,0,.455l.758.758a.322.322,0,0,0,.455,0L6,10.637l1.288,1.288a.322.322,0,0,0,.455,0l.758-.758a.322.322,0,0,0,0-.455Z"/></svg>