<svg xmlns="http://www.w3.org/2000/svg" width="14.954" height="16.449" viewBox="0 0 14.954 16.449"><defs><style>.a{fill:none;stroke:#2d3447;stroke-linecap:round;stroke-linejoin:round;stroke-width:1.5px;}</style></defs><g transform="translate(0.75 0.75)"><path class="a" d="M16.459,6H5.995A1.5,1.5,0,0,0,4.5,7.495V17.959a1.5,1.5,0,0,0,1.495,1.495H16.459a1.5,1.5,0,0,0,1.495-1.495V7.495A1.5,1.5,0,0,0,16.459,6Z" transform="translate(-4.5 -4.505)"/><path class="a" d="M24,3V5.99" transform="translate(-20.263 -3)"/><path class="a" d="M12,3V5.99" transform="translate(-2.283 -3)"/><path class="a" d="M0,0V1.158" transform="translate(8.321 9.306) rotate(-90)"/><path class="a" d="M17.954,15H4.5" transform="translate(-4.5 -9.02)"/></g></svg>