<svg xmlns="http://www.w3.org/2000/svg" width="21.868" height="17" viewBox="0 0 21.868 17"><g transform="translate(-183 -565)"><path d="M6.414,2.96a1.48,1.48,0,1,0-1.48-1.48A1.48,1.48,0,0,0,6.414,2.96Zm2.914,4.6-.718-.364-.3-.906a3.362,3.362,0,0,0-3.151-2.34,6.78,6.78,0,0,0-2.877.777A2.941,2.941,0,0,0,.75,6.148l-.207.419A.99.99,0,0,0,.981,7.89a.973.973,0,0,0,1.31-.441L2.5,7.03a.98.98,0,0,1,.509-.475l.826-.333L3.365,8.093a1.98,1.98,0,0,0,.459,1.813l1.847,2.016a1.99,1.99,0,0,1,.459.854l.564,2.26a.987.987,0,1,0,1.915-.478l-.684-2.744a1.972,1.972,0,0,0-.459-.854l-1.4-1.532.53-2.118.17.509A1.966,1.966,0,0,0,7.74,8.96l.718.364a.973.973,0,0,0,1.31-.441,1,1,0,0,0-.441-1.326ZM2.27,11.9a1.913,1.913,0,0,1-.438.663L.291,14.1a.987.987,0,0,0,1.394,1.4l1.831-1.831a2,2,0,0,0,.438-.663l.416-1.042C2.665,10.1,3.177,10.674,2.908,10.307L2.27,11.9Z" transform="translate(194.998 566)" fill="#adadad"/><g transform="translate(183 565)" fill="#fff" stroke="#adadad" stroke-width="1"><rect width="10" height="17" rx="2" stroke="none"/><rect x="0.5" y="0.5" width="9" height="16" rx="1.5" fill="none"/></g><g transform="translate(189 573)" fill="#fff" stroke="#adadad" stroke-width="1"><circle cx="1" cy="1" r="1" stroke="none"/><circle cx="1" cy="1" r="0.5" fill="none"/></g></g></svg>