<svg xmlns="http://www.w3.org/2000/svg" width="22" height="17" viewBox="0 0 22 17"><g transform="translate(-320 -565)"><path d="M3.5,2.96A1.49,1.49,0,0,1,2,1.48a1.5,1.5,0,0,1,3,0A1.49,1.49,0,0,1,3.5,2.96ZM.551,7.557l.728-.364.3-.906a3.4,3.4,0,0,1,3.193-2.34,6.942,6.942,0,0,1,2.915.777A2.965,2.965,0,0,1,9.243,6.148l.209.419a.989.989,0,0,1-1.772.882L7.472,7.03a.988.988,0,0,0-.516-.475l-.837-.333.475,1.872a1.962,1.962,0,0,1-.466,1.813L4.257,11.923a1.982,1.982,0,0,0-.466.854l-.572,2.26a1,1,0,0,1-1.212.718.988.988,0,0,1-.728-1.2l.694-2.744a1.964,1.964,0,0,1,.466-.854L3.86,9.428,3.322,7.31l-.172.509A1.974,1.974,0,0,1,2.16,8.96l-.728.364A.987.987,0,1,1,.551,7.557ZM7.7,11.9a1.911,1.911,0,0,0,.444.663L9.709,14.1a.979.979,0,0,1,0,1.4,1.007,1.007,0,0,1-1.412,0L6.441,13.668A2,2,0,0,1,6,13.005l-.422-1.042C7.3,10.1,6.784,10.674,7.056,10.307Z" transform="translate(331.998 566)" fill="#adadad"/><g transform="translate(320 565)" fill="#fff" stroke="#adadad" stroke-width="1"><rect width="10" height="17" rx="2" stroke="none"/><rect x="0.5" y="0.5" width="9" height="16" rx="1.5" fill="none"/></g><g transform="translate(326 573)" fill="#fff" stroke="#adadad" stroke-width="1"><circle cx="1" cy="1" r="1" stroke="none"/><circle cx="1" cy="1" r="0.5" fill="none"/></g></g></svg>