<svg xmlns="http://www.w3.org/2000/svg" xmlns:xlink="http://www.w3.org/1999/xlink" width="28" height="28" viewBox="0 0 28 28"><defs><linearGradient id="a" x1="0.212" x2="0.899" y2="1" gradientUnits="objectBoundingBox"><stop offset="0" stop-color="#2ae7e8"/><stop offset="1" stop-color="#00b4b5"/></linearGradient><linearGradient id="b" x1="0.5" x2="0.5" y2="1" gradientUnits="objectBoundingBox"><stop offset="0" stop-color="#fff" stop-opacity="0.678"/><stop offset="1" stop-color="#fff"/></linearGradient></defs><g transform="translate(-327 -738)"><rect width="28" height="28" rx="10" transform="translate(327 738)" fill="url(#a)"/><path d="M8.67,2.25A6.167,6.167,0,0,0,2.479,8.393a6.08,6.08,0,0,0,.888,3.172l-1.117,3.3,3.428-1.089a6.2,6.2,0,0,0,9.184-5.379A6.167,6.167,0,0,0,8.67,2.25Zm3.079,8.476a1.6,1.6,0,0,1-1.1.706c-.29.015-.3.225-1.882-.463A6.46,6.46,0,0,1,6.162,8.5a3.036,3.036,0,0,1-.584-1.646,1.754,1.754,0,0,1,.6-1.287.606.606,0,0,1,.429-.181c.125,0,.205,0,.3,0s.231-.019.35.3.407,1.1.443,1.182a.287.287,0,0,1,0,.275,1.075,1.075,0,0,1-.168.256c-.083.089-.174.2-.247.266s-.168.157-.082.317A4.738,4.738,0,0,0,8.045,9.1a4.32,4.32,0,0,0,1.241.825c.155.085.248.075.344-.026s.412-.443.523-.6.216-.123.359-.066.905.466,1.061.55.259.127.3.194A1.3,1.3,0,0,1,11.749,10.726Z" transform="translate(332.207 743.207)" fill="url(#b)"/></g></svg>