<svg xmlns="http://www.w3.org/2000/svg" width="84.096" height="83.975" viewBox="0 0 84.096 83.975">
  <path id="Dining" d="M5.747,83.975a1.465,1.465,0,0,1-1.373-.924L.1,73.651A1.839,1.839,0,0,1,.253,72.11a1.556,1.556,0,0,1,1.221-.77H4.862a37.411,37.411,0,0,1,32.029-35.7,6.4,6.4,0,0,1-1.08-3.6,6.257,6.257,0,1,1,12.514,0,6.4,6.4,0,0,1-1.08,3.6,37.41,37.41,0,0,1,32.028,35.7H82.66a1.359,1.359,0,0,1,1.221.77,2.558,2.558,0,0,1,.153,1.541l-4.273,9.4a1.465,1.465,0,0,1-1.373.924Zm.916-3.082H77.319l2.9-6.318H3.915ZM76.216,71.34a34.171,34.171,0,0,0-68.3,0ZM38.863,32.049a3.2,3.2,0,1,0,3.2-3.236A3.145,3.145,0,0,0,38.863,32.049Zm-23.2,26.194a1.523,1.523,0,0,1-.458-2.156A37.512,37.512,0,0,1,35.353,41.295a1.353,1.353,0,0,1,1.831,1.078,1.368,1.368,0,0,1-1.068,1.849A34.874,34.874,0,0,0,17.65,57.781a.977.977,0,0,1-1.068.77A2.142,2.142,0,0,1,15.666,58.243ZM39.473,22.5a4.791,4.791,0,0,1,1.373-3.545,2.48,2.48,0,0,0,.763-1.695,2.487,2.487,0,0,0-.763-1.695,5.089,5.089,0,0,1-1.373-3.543,4.787,4.787,0,0,1,1.373-3.543A2.486,2.486,0,0,0,41.61,6.78a2.485,2.485,0,0,0-.763-1.7,5.086,5.086,0,0,1-1.373-3.543,1.526,1.526,0,1,1,3.052,0,2.483,2.483,0,0,0,.763,1.695A5.09,5.09,0,0,1,44.662,6.78a4.789,4.789,0,0,1-1.373,3.544,2.485,2.485,0,0,0-.763,1.695,2.485,2.485,0,0,0,.763,1.695,5.089,5.089,0,0,1,1.373,3.544A4.79,4.79,0,0,1,43.288,20.8a2.486,2.486,0,0,0-.763,1.695A1.537,1.537,0,0,1,41,24.038,1.449,1.449,0,0,1,39.473,22.5Zm8.088-5.24a3.259,3.259,0,0,1,.916-2.31c.153-.309.153-.309.153-.463s0-.154-.153-.463a3.62,3.62,0,0,1-.916-2.312,3.259,3.259,0,0,1,.916-2.31c.153-.309.153-.309.153-.463s0-.154-.153-.461a3.627,3.627,0,0,1-.916-2.312,1.526,1.526,0,1,1,3.052,0c0,.154,0,.154.153.462a3.627,3.627,0,0,1,.916,2.311,3.26,3.26,0,0,1-.916,2.312c-.153.308-.153.308-.153.461s0,.155.153.463a3.621,3.621,0,0,1,.916,2.311,3.26,3.26,0,0,1-.916,2.312c-.153.308-.153.308-.153.461a1.526,1.526,0,1,1-3.052,0Zm-15.261,0a3.259,3.259,0,0,1,.916-2.31c.153-.309.153-.309.153-.463s0-.154-.153-.463A3.62,3.62,0,0,1,32.3,11.71a3.259,3.259,0,0,1,.916-2.31c.153-.309.153-.309.153-.463s0-.154-.153-.461A3.627,3.627,0,0,1,32.3,6.164a1.526,1.526,0,1,1,3.052,0c0,.154,0,.154.153.462a3.627,3.627,0,0,1,.916,2.311,3.26,3.26,0,0,1-.916,2.312c-.153.308-.153.308-.153.461s0,.155.153.463a3.62,3.62,0,0,1,.916,2.311,3.26,3.26,0,0,1-.916,2.312c-.153.308-.153.308-.153.461a1.526,1.526,0,1,1-3.052,0Z" fill="#3f4663"/>
</svg>
