<svg xmlns="http://www.w3.org/2000/svg" width="19" height="20" viewBox="0 0 19 20">
  <g id="FamilyIcon" transform="translate(0)">
    <rect id="Rectangle_39" data-name="Rectangle 39" width="19" height="20" transform="translate(0)" fill="none"/>
    <path id="Path_64" data-name="Path 64" d="M13.4,3.666a1.628,1.628,0,1,1,3.256,0,1.628,1.628,0,1,1-3.256,0ZM16.651,17.83V13.664h.9a.836.836,0,0,0,.773-1.1L16.619,7.307a1.639,1.639,0,0,0-1.547-1.141h-.1a1.632,1.632,0,0,0-1.547,1.141l-.7,2.15A2.915,2.915,0,0,1,14.209,12v6.665h1.628A.826.826,0,0,0,16.651,17.83Zm-6.1-7.915a1.25,1.25,0,1,0-1.221-1.25A1.234,1.234,0,0,0,10.547,9.915Zm-5.7-4.582A1.642,1.642,0,0,0,6.477,3.666a1.628,1.628,0,1,0-3.256,0A1.642,1.642,0,0,0,4.849,5.333Zm1.628,12.5v-5h.407A.826.826,0,0,0,7.7,12V7.832A1.652,1.652,0,0,0,6.07,6.166H3.628A1.652,1.652,0,0,0,2,7.832V12a.826.826,0,0,0,.814.833h.407v5a.826.826,0,0,0,.814.833H5.663A.826.826,0,0,0,6.477,17.83ZM8.512,12v2.5a.826.826,0,0,0,.814.833h0v2.5a.826.826,0,0,0,.814.833h.814a.826.826,0,0,0,.814-.833v-2.5h0a.826.826,0,0,0,.814-.833V12a1.245,1.245,0,0,0-1.221-1.25H9.733A1.245,1.245,0,0,0,8.512,12" transform="translate(-0.612 -0.334)" fill="#adadad"/>
  </g>
</svg>
