<svg id="FireplaceIcon" xmlns="http://www.w3.org/2000/svg" width="19.539" height="20" viewBox="0 0 19.539 20">
  <path id="Path_48" data-name="Path 48" d="M16.417,24.309a.729.729,0,0,1,1.443-.1h0l.714,3.68a1.566,1.566,0,0,1,.037.328,1.467,1.467,0,0,1-2.931,0,1.6,1.6,0,0,1,.05-.394Z" transform="translate(-7.324 -9.625)" fill="#adadad"/>
  <path id="Path_49" data-name="Path 49" d="M21.509,24.961Z" transform="translate(-14.278 -10.201)" fill="#adadad"/>
  <path id="Path_50" data-name="Path 50" d="M21.708,25.987a1.67,1.67,0,0,1,.234-.183l2.729-2.039a.555.555,0,0,1,.756.042.6.6,0,0,1,.078.722l-2.061,2.9a1.537,1.537,0,0,1-.156.2,1.118,1.118,0,0,1-1.584,0A1.2,1.2,0,0,1,21.708,25.987Z" transform="translate(-19.002 -9.629)" fill="#adadad"/>
  <path id="Path_51" data-name="Path 51" d="M26.191,23.555Z" transform="translate(-22.734 -9.757)" fill="#adadad"/>
  <path id="Path_52" data-name="Path 52" d="M26.43,22.5h2.725a.356.356,0,0,1,.371.291.393.393,0,0,1-.215.413h0l-2.642.834a.708.708,0,0,1-.811-.694C25.853,22.791,26.073,22.5,26.43,22.5Z" transform="translate(-25.853 -9.395)" fill="#adadad"/>
  <path id="Path_53" data-name="Path 53" d="M9.788,23.555Z" transform="translate(6.308 -9.757)" fill="#adadad"/>
  <path id="Path_54" data-name="Path 54" d="M4.72,23.2h0a.4.4,0,0,1-.215-.413.346.346,0,0,1,.371-.291H7.6c.348,0,.563.389.563.825a.711.711,0,0,1-.8.712L4.725,23.2Z" transform="translate(11.375 -9.395)" fill="#adadad"/>
  <path id="Path_55" data-name="Path 55" d="M9.082,23.756l2.729,2.034a1.266,1.266,0,0,1,.234.183,1.162,1.162,0,0,1,0,1.622,1.1,1.1,0,0,1-1.584,0,1.269,1.269,0,0,1-.156-.2L8.244,24.511a.584.584,0,0,1,.078-.717A.559.559,0,0,1,9.082,23.756Z" transform="translate(4.783 -9.625)" fill="#adadad"/>
  <g id="Group_80" data-name="Group 80" transform="translate(4.957)">
    <path id="Path_56" data-name="Path 56" d="M10.51,7.627c0-2.7,3.316-4.252,4.4-4.252-.55,3.787,4.657,5.3,5.129,8.5a3.839,3.839,0,0,1-2.2,4.252c-.746-2.653-3.316-3.544-5.024-4.678C10.95,10.209,10.51,9.042,10.51,7.627Z" transform="translate(-10.394 -3.375)" fill="#adadad"/>
    <path id="Path_57" data-name="Path 57" d="M16.457,16.767a6.581,6.581,0,0,1,.137-2.972,6.115,6.115,0,0,0,2.161,2.156c.394.263.957.506,1.365.745a7.914,7.914,0,0,1,2.12,1.613,2.894,2.894,0,0,1-2.12,1.3C18.472,19.6,17.19,18.966,16.457,16.767Z" transform="translate(-16.341 -6.848)" fill="#adadad"/>
    <path id="Path_58" data-name="Path 58" d="M13.6,9.886a13.981,13.981,0,0,0-1.749-1.7,6.031,6.031,0,0,1-1.259-1.467A2.12,2.12,0,0,1,12.639,5.5c-.105,1.341,1.374,2.063,1.465,3.038A1.625,1.625,0,0,1,13.6,9.886Z" transform="translate(-4.467 -4.078)" fill="#adadad"/>
  </g>
</svg>
