<svg xmlns="http://www.w3.org/2000/svg" width="93" height="56" viewBox="0 0 93 56"><defs><style>.a{fill:#fff;stroke:#f5f4f4;}.b{fill:#5f6368;}.c{fill:#4285f4;}.d{fill:#34a853;}.e{fill:#fbbc04;}.f{fill:#ea4335;}.g{stroke:none;}.h{fill:none;}</style></defs><g transform="translate(-0.164)"><g transform="translate(0)"><g class="a" transform="translate(0.164)"><rect class="g" width="93" height="56" rx="9"/><rect class="h" x="0.5" y="0.5" width="92" height="55" rx="8.5"/></g><g transform="translate(12.23 16.204)"><path class="b" d="M193.645,21.786v8.03H191.1V9.994h6.75a6.136,6.136,0,0,1,4.379,1.723,5.464,5.464,0,0,1,1.818,4.173,5.531,5.531,0,0,1-1.818,4.2,6.114,6.114,0,0,1-4.363,1.691Zm0-9.358v6.924h4.268a3.328,3.328,0,0,0,2.513-1.028,3.373,3.373,0,0,0,.063-4.774l-.063-.063a3.285,3.285,0,0,0-2.513-1.043Zm16.266,3.383a6.364,6.364,0,0,1,4.458,1.5A5.36,5.36,0,0,1,216,21.454V29.8h-2.434V27.92h-.111a4.862,4.862,0,0,1-4.2,2.324,5.459,5.459,0,0,1-3.746-1.328A4.192,4.192,0,0,1,204,25.6a4.05,4.05,0,0,1,1.6-3.351A6.672,6.672,0,0,1,209.848,21a7.667,7.667,0,0,1,3.731.822v-.585a2.915,2.915,0,0,0-1.043-2.245,3.7,3.7,0,0,0-2.45-.933,3.917,3.917,0,0,0-3.383,1.8l-2.245-1.407a6.206,6.206,0,0,1,5.454-2.64Zm-3.288,9.848a2.051,2.051,0,0,0,.838,1.66,3.108,3.108,0,0,0,1.976.664A4.044,4.044,0,0,0,212.3,26.8a3.732,3.732,0,0,0,1.265-2.8,5.187,5.187,0,0,0-3.32-.948,4.4,4.4,0,0,0-2.592.743A2.26,2.26,0,0,0,206.623,25.659Zm23.348-9.406-8.5,19.538h-2.624L222,28.963l-5.6-12.694h2.766l4.031,9.738h.063L227.2,16.27Z" transform="translate(-161.046 -8.412)"/><path class="c" d="M83.923,61.308A14.063,14.063,0,0,0,83.733,59H73v4.379h6.149a5.271,5.271,0,0,1-2.276,3.462v2.845H80.54a11.1,11.1,0,0,0,3.383-8.378Z" transform="translate(-61.614 -49.673)"/><path class="d" d="M18.864,95A10.887,10.887,0,0,0,26.4,92.25L22.737,89.4a6.895,6.895,0,0,1-10.259-3.6H8.7v2.94A11.4,11.4,0,0,0,18.864,95Z" transform="translate(-7.479 -72.236)"/><path class="e" d="M5.974,46.987a6.868,6.868,0,0,1,0-4.363V39.7H2.2a11.285,11.285,0,0,0,0,10.212Z" transform="translate(-0.975 -33.424)"/><path class="f" d="M18.864,4.5a6.125,6.125,0,0,1,4.363,1.707l3.241-3.241A10.865,10.865,0,0,0,18.864,0,11.383,11.383,0,0,0,8.7,6.272l3.778,2.94A6.8,6.8,0,0,1,18.864,4.5Z" transform="translate(-7.479 0.004)"/></g></g></g></svg>