<svg xmlns="http://www.w3.org/2000/svg" width="79.957" height="46.807" viewBox="0 0 79.957 46.807">
  <path id="Gym" d="M582.555,1089.374h-1.8a5.649,5.649,0,0,0-1.8.289v-.289a5.3,5.3,0,0,0-5.4-5.4h-1.8a5.3,5.3,0,0,0-5.4,5.4v16.2H529.607v-16.2a5.3,5.3,0,0,0-5.4-5.4h-1.8a5.3,5.3,0,0,0-5.4,5.4v.289a5.65,5.65,0,0,0-1.8-.289h-1.8a5.3,5.3,0,0,0-5.4,5.4v27a5.305,5.305,0,0,0,5.4,5.4h1.8a5.635,5.635,0,0,0,1.984-.354,5.286,5.286,0,0,0,5.218,3.955h1.8a5.305,5.305,0,0,0,5.4-5.4v-16.2H566.35v16.2a5.305,5.305,0,0,0,5.4,5.4h1.8a5.286,5.286,0,0,0,5.218-3.955,5.633,5.633,0,0,0,1.984.354h1.8a5.305,5.305,0,0,0,5.4-5.4v-27A5.305,5.305,0,0,0,582.555,1089.374Zm-67.353,34.2h-1.8a1.7,1.7,0,0,1-1.8-1.8v-27a1.7,1.7,0,0,1,1.8-1.8h1.8a1.7,1.7,0,0,1,1.8,1.8v27A1.7,1.7,0,0,1,515.2,1123.579Zm10.8,1.8a1.7,1.7,0,0,1-1.8,1.8h-1.8a1.7,1.7,0,0,1-1.8-1.8v-36.005a1.7,1.7,0,0,1,1.8-1.8h1.8a1.7,1.7,0,0,1,1.8,1.8Zm49.347,0a1.7,1.7,0,0,1-1.8,1.8h-1.8a1.7,1.7,0,0,1-1.8-1.8v-36.005a1.7,1.7,0,0,1,1.8-1.8h1.8a1.7,1.7,0,0,1,1.8,1.8v36.005Zm9-3.6a1.7,1.7,0,0,1-1.8,1.8h-1.8a1.7,1.7,0,0,1-1.8-1.8v-27a1.7,1.7,0,0,1,1.8-1.8h1.8a1.7,1.7,0,0,1,1.8,1.8Z" transform="translate(-508 -1083.974)" fill="#3f4663"/>
</svg>
