<svg xmlns="http://www.w3.org/2000/svg" width="36.294" height="36.294" viewBox="0 0 36.294 36.294"><defs><style>.a{fill-rule:evenodd;}</style></defs><path class="a" d="M15.249,7A8.249,8.249,0,1,0,23.5,15.249,8.249,8.249,0,0,0,15.249,7ZM10.3,15.249A4.949,4.949,0,1,0,15.249,10.3,4.949,4.949,0,0,0,10.3,15.249Z" transform="translate(2.898 2.898)"/><path d="M18.65,5A1.65,1.65,0,1,0,20.3,6.65,1.65,1.65,0,0,0,18.65,5Z" transform="translate(9.396 1.598)"/><path class="a" d="M7.6,1A6.6,6.6,0,0,0,1,7.6V30.7a6.6,6.6,0,0,0,6.6,6.6H30.7a6.6,6.6,0,0,0,6.6-6.6V7.6A6.6,6.6,0,0,0,30.7,1ZM30.7,4.3H7.6A3.3,3.3,0,0,0,4.3,7.6V30.7a3.3,3.3,0,0,0,3.3,3.3H30.7a3.3,3.3,0,0,0,3.3-3.3V7.6A3.3,3.3,0,0,0,30.7,4.3Z" transform="translate(-1 -1)"/></svg>