<svg xmlns="http://www.w3.org/2000/svg" width="53.077" height="29.21" viewBox="0 0 53.077 29.21"><g transform="translate(0)"><path d="M19.166,7.3a4.551,4.551,0,0,0-2.282-3.931V14.605H14.145V2.738H11.407V14.605H8.668V3.372A4.551,4.551,0,0,0,6.386,7.3v7.3H3.648V7.3A7.3,7.3,0,0,1,10.95,0H14.6a7.3,7.3,0,0,1,7.3,7.3v7.3H19.166ZM.093,19.506.7,17.68a1.828,1.828,0,0,1,1.734-1.249H23.119a1.828,1.828,0,0,1,1.734,1.249l.61,1.826a1.83,1.83,0,0,1-1.734,2.4V28.3a.916.916,0,0,1-.913.913H20.991a.916.916,0,0,1-.913-.913v-6.39H5.473V28.3a.916.916,0,0,1-.913.913H2.735a.916.916,0,0,1-.913-.913v-6.39A1.824,1.824,0,0,1,.093,19.506Z" transform="translate(27.52)" fill="#ed702d"/><path d="M19.166,7.3a4.551,4.551,0,0,0-2.282-3.931V14.605H14.145V2.738H11.407V14.605H8.668V3.372A4.551,4.551,0,0,0,6.386,7.3v7.3H3.648V7.3A7.3,7.3,0,0,1,10.95,0H14.6a7.3,7.3,0,0,1,7.3,7.3v7.3H19.166ZM.093,19.506.7,17.68a1.828,1.828,0,0,1,1.734-1.249H23.119a1.828,1.828,0,0,1,1.734,1.249l.61,1.826a1.83,1.83,0,0,1-1.734,2.4V28.3a.916.916,0,0,1-.913.913H20.991a.916.916,0,0,1-.913-.913v-6.39H5.473V28.3a.916.916,0,0,1-.913.913H2.735a.916.916,0,0,1-.913-.913v-6.39A1.824,1.824,0,0,1,.093,19.506Z" transform="translate(0.002)" fill="#ed702d"/></g></svg>