<svg xmlns="http://www.w3.org/2000/svg" width="24.88" height="13.693" viewBox="0 0 24.88 13.693"><g transform="translate(-190 -559)"><path d="M2.994,3.423a2.133,2.133,0,0,1,1.07-1.843V6.846H5.348V1.284H6.631V6.846H7.915V1.581a2.133,2.133,0,0,1,1.07,1.843V6.846h1.284V3.423A3.423,3.423,0,0,0,6.845,0H5.134A3.423,3.423,0,0,0,1.711,3.423V6.846H2.994Zm8.94,5.72-.286-.856a.857.857,0,0,0-.813-.586H1.141a.857.857,0,0,0-.813.586l-.286.856A.858.858,0,0,0,.855,10.27v3a.429.429,0,0,0,.428.428h.856a.429.429,0,0,0,.428-.428v-3H9.413v3a.429.429,0,0,0,.428.428H10.7a.429.429,0,0,0,.428-.428v-3A.855.855,0,0,0,11.935,9.144Z" transform="translate(190.002 559)" fill="#adadad"/><path d="M2.994,3.423a2.133,2.133,0,0,1,1.07-1.843V6.846H5.348V1.284H6.631V6.846H7.915V1.581a2.133,2.133,0,0,1,1.07,1.843V6.846h1.284V3.423A3.423,3.423,0,0,0,6.845,0H5.134A3.423,3.423,0,0,0,1.711,3.423V6.846H2.994Zm8.94,5.72-.286-.856a.857.857,0,0,0-.813-.586H1.141a.857.857,0,0,0-.813.586l-.286.856A.858.858,0,0,0,.855,10.27v3a.429.429,0,0,0,.428.428h.856a.429.429,0,0,0,.428-.428v-3H9.413v3a.429.429,0,0,0,.428.428H10.7a.429.429,0,0,0,.428-.428v-3A.855.855,0,0,0,11.935,9.144Z" transform="translate(202.901 559)" fill="#adadad"/></g></svg>