<svg xmlns="http://www.w3.org/2000/svg" xmlns:xlink="http://www.w3.org/1999/xlink" width="93" height="56" viewBox="0 0 93 56"><defs><style>.a{fill:#fff;stroke:#f5f4f4;}.b,.h{fill:#4d4e4e;}.c{opacity:0.52;}.d{fill:#cac9c9;}.e{clip-path:url(#a);}.f{fill:url(#b);}.g{fill:none;}.h{font-size:6px;font-family:Poppins-Regular, Poppins;}.i{stroke:none;}</style><clipPath id="a"><path d="M135.562,77.873a2.2,2.2,0,0,1-1.442-1.128,2.3,2.3,0,0,1-.282-1.6,2.333,2.333,0,0,1,.846-1.4l.119-.076.174-.108a2.349,2.349,0,0,1,1.8-.249,2.275,2.275,0,0,1,1.453,1.074l.033.054a2.419,2.419,0,0,1,.228,1.637,2.463,2.463,0,0,1-.759,1.29,1.837,1.837,0,0,1-.358.293l-.054.033a2.476,2.476,0,0,1-1.1.271,2.215,2.215,0,0,1-.661-.087m-1.225-16.721A14.384,14.384,0,0,0,128.969,63a14.869,14.869,0,0,0-4.327,3.784,15.686,15.686,0,0,0-2.483,5.031,14.56,14.56,0,0,0-.412,5.574,14.319,14.319,0,0,0,1.8,5.465,5.371,5.371,0,0,0,1.594,1.713,6.4,6.4,0,0,0,2.125.922,6.906,6.906,0,0,0,2.364.087,5.864,5.864,0,0,0,2.245-.792l.4-.239a2.068,2.068,0,0,0,.228-.163l.043-.033a6.273,6.273,0,0,0,1.6-1.919l.314-.6.651.119a6.422,6.422,0,0,0,4.283-.759,1.265,1.265,0,0,0,.325-.228c.152-.108.282-.2.4-.271A6.225,6.225,0,0,0,141.646,79a6.736,6.736,0,0,0,.835-2.125,6.414,6.414,0,0,0,.054-2.277,6.262,6.262,0,0,0-2.472-4.142,6.057,6.057,0,0,0-2.2-1.084,6.758,6.758,0,0,0-2.483-.173,5.81,5.81,0,0,0-2.418.835l-.4.239a1.347,1.347,0,0,0-.282.206l-.033.011A6.1,6.1,0,0,0,130.7,72.2a6.464,6.464,0,0,0-.835,2.093,6.53,6.53,0,0,0-.054,2.3,5.9,5.9,0,0,0,.77,2.18l.054.119a1.751,1.751,0,0,1-2.06,2.451,1.759,1.759,0,0,1-1.041-.835,9.789,9.789,0,0,1-.943-7.515,10.63,10.63,0,0,1,1.681-3.383,9.3,9.3,0,0,1,2.96-2.581,9.732,9.732,0,0,1,7.482-.976,10.044,10.044,0,0,1,3.481,1.713,9.289,9.289,0,0,1,2.537,2.928,10.357,10.357,0,0,1,1.247,3.665,9.541,9.541,0,0,1-.314,3.86,12.116,12.116,0,0,1-1.681,3.448c-1.616,2.4-2.3,3.774-7.905,8.4,0,0,1.594-.076,2.277-.2a20.88,20.88,0,0,0,2.516-.575c.716-.271,1.29-.477,1.713-.683.575-.282.77-.39.846-.434A15.327,15.327,0,0,0,145,87.112a14.04,14.04,0,0,0,5.194-7.71,14.3,14.3,0,0,0,.412-5.65,15.278,15.278,0,0,0-1.811-5.411,13.725,13.725,0,0,0-3.7-4.283,15.765,15.765,0,0,0-5.107-2.537A14.312,14.312,0,0,0,136.18,61a17.842,17.842,0,0,0-1.843.152" transform="translate(-121.644 -61)"/></clipPath><linearGradient id="b" x1="-3.231" y1="-2.33" x2="-3.23" y2="-2.33" gradientUnits="objectBoundingBox"><stop offset="0" stop-color="#2b327a"/><stop offset="0.221" stop-color="#2a437b"/><stop offset="0.657" stop-color="#26707e"/><stop offset="1" stop-color="#239780"/></linearGradient></defs><g transform="translate(-0.22)"><g transform="translate(-0.001)"><g class="a" transform="translate(0.221)"><rect class="i" width="93" height="56" rx="9"/><rect class="g" x="0.5" y="0.5" width="92" height="55" rx="8.5"/></g><g transform="translate(22.001 6.925)"><g transform="translate(8.425 0)"><path class="b" d="M276.831,372.448a.82.82,0,0,0,.13.51.54.54,0,0,0,.445.152h2.169v-2.082c0-.8.369-1.2,1.128-1.2h1.431v2.6c0,.8-.369,1.2-1.128,1.2h-3.578c-.759,0-1.128-.4-1.128-1.2v-1.052l.531-.347v1.421Zm3.3.661h.889a.527.527,0,0,0,.445-.152.8.8,0,0,0,.13-.51v-2.114h-.878a.527.527,0,0,0-.445.152.8.8,0,0,0-.13.51v2.115Zm.4-4.652a.314.314,0,0,1,.108-.249.33.33,0,0,1,.249-.108.314.314,0,0,1,.249.108.358.358,0,0,1-.249.607.314.314,0,0,1-.249-.108.4.4,0,0,1-.108-.249" transform="translate(-258.43 -331.815)"/><path class="b" d="M340.1,385.2c0-.8.369-1.2,1.128-1.2h1.431v3.936a4,4,0,0,1-.076.759,1.428,1.428,0,0,1-.282.575,1.413,1.413,0,0,1-.531.39,2.183,2.183,0,0,1-.857.174l-.347-.477a1.981,1.981,0,0,0,1.193-.325,1.155,1.155,0,0,0,.39-.954V387.8h-.889c-.759,0-1.128-.4-1.128-1.2v-1.4l-.033.011Zm.542,1.421a.82.82,0,0,0,.13.51.54.54,0,0,0,.445.152h.889v-2.765h-.889a.527.527,0,0,0-.445.152.8.8,0,0,0-.13.51Z" transform="translate(-315.311 -345.991)"/><path class="b" d="M371.721,388.218a2.979,2.979,0,0,1-.043.564,1.17,1.17,0,0,1-.163.412,1.324,1.324,0,0,1-.314.347,2.985,2.985,0,0,1-.51.314l-.39-.488a2.334,2.334,0,0,0,.412-.228,2,2,0,0,0,.271-.228.84.84,0,0,0,.13-.282,1.419,1.419,0,0,0,.043-.4V384h.531v3.286h.445v.531h-.445v.4Z" transform="translate(-342.237 -345.991)"/><path class="b" d="M389.713,387.133a.925.925,0,0,1-.64.228H387.1v-.531h2.223c-.206-.271-.412-.488-.607-.716a9.644,9.644,0,0,0-.737-.694v-.108a1.985,1.985,0,0,1,.13-.737,1.836,1.836,0,0,1,.358-.575,1.544,1.544,0,0,1,.564-.369,1.916,1.916,0,0,1,1.388,0,1.75,1.75,0,0,1,.564.369,1.512,1.512,0,0,1,.358.575,1.984,1.984,0,0,1,.13.737v.108a7.959,7.959,0,0,0-.737.694,8.674,8.674,0,0,0-.607.716h1.887v.531h-1.637a.84.84,0,0,1-.661-.228m0-.64c.119-.163.239-.293.325-.412.108-.119.2-.228.282-.325s.2-.206.282-.293l.314-.315a1.17,1.17,0,0,0-.4-.792,1.189,1.189,0,0,0-.813-.293,1.288,1.288,0,0,0-.813.293,1.192,1.192,0,0,0-.4.792l.314.315c.087.087.2.2.282.293s.2.206.282.325c.108.119.217.249.347.412" transform="translate(-357.215 -345.545)"/><path class="b" d="M432.568,384.836a1.224,1.224,0,0,1,.325-.922,1.313,1.313,0,0,1,.954-.314,1.349,1.349,0,0,1,.954.314,1.184,1.184,0,0,1,.325.922V387.2c0,.813-.434,1.214-1.29,1.214a1.444,1.444,0,0,1-.846-.228,1.025,1.025,0,0,1-.412-.727H431.7v-.531h.878v-2.093Zm.542,2.353a.7.7,0,0,0,.173.531.784.784,0,0,0,.553.163.8.8,0,0,0,.564-.163.682.682,0,0,0,.174-.531v-2.375a.7.7,0,0,0-.174-.531.834.834,0,0,0-.564-.163.8.8,0,0,0-.553.163.682.682,0,0,0-.173.531Z" transform="translate(-396.979 -345.634)"/><g class="c" transform="translate(0)"><path class="d" d="M127.169,49.3a15.751,15.751,0,1,0,15.669,15.745A15.707,15.707,0,0,0,127.169,49.3m8.241,19.378a8.489,8.489,0,0,1-.813,1.475c-.087.152-.2.293-.293.434a8.809,8.809,0,0,1-2.624,2.342l-.076.043c-.054.033-.206.087-.412.173a6.957,6.957,0,0,1-.716.325,9.044,9.044,0,0,1-3.459.651h-.087c-.087,0-.271-.043-.564-.076a7.9,7.9,0,0,1-1.1-.239,2.028,2.028,0,0,1-.239-.076,6.042,6.042,0,0,0,.889-1.41,9.394,9.394,0,0,0,1.139.119c.163,0,.325,0,.51-.011.163-.011.325-.011.455-.011a8.1,8.1,0,0,0,1.8-.445v-.011a7.521,7.521,0,0,0,.954-.445c.054-.033.13-.076.2-.119.108-.076.228-.13.314-.206.087-.054.163-.119.249-.163a7.43,7.43,0,0,0,1.074-.954l.033-.033.13-.163a6.367,6.367,0,0,0,.672-.933,7.872,7.872,0,0,0,.933-2.407,6.88,6.88,0,0,0,.043-2.581,7.412,7.412,0,0,0-.878-2.516,7.843,7.843,0,0,0-1.963-2.2,6.95,6.95,0,0,0-2.527-1.236,7.894,7.894,0,0,0-2.537-.228,1.463,1.463,0,0,0-.2.033,7.1,7.1,0,0,0-2.516.792,7.6,7.6,0,0,0-2.049,1.572,8.028,8.028,0,0,0-1.4,2.158c-.011.033-.033.054-.033.087,0,.011-.011.033-.011.043a7.582,7.582,0,0,0-.434,3.839,6.7,6.7,0,0,0,.889,2.537l.011.033a.72.72,0,0,1-.282,1.1.745.745,0,0,1-.64.087.851.851,0,0,1-.52-.412,9.06,9.06,0,0,1-1.128-3.372,9,9,0,0,1,.716-4.771,10.045,10.045,0,0,1,.965-1.659c.033-.043.054-.076.087-.119a8.258,8.258,0,0,1,2.657-2.342,8.776,8.776,0,0,1,6.029-1.084,8.653,8.653,0,0,1,3.828,1.616.466.466,0,0,0,.108.076,8.078,8.078,0,0,1,1.822,1.876,8.916,8.916,0,0,1,1.1,1.963,8.654,8.654,0,0,1,.629,3.448,9.091,9.091,0,0,1-.737,3.4m-9.781-3.611a1.529,1.529,0,1,1,1.529,1.529,1.527,1.527,0,0,1-1.529-1.529" transform="translate(-111.5 -49.3)"/></g></g><g transform="translate(9.525 1.269)"><g transform="translate(0 0)"><g class="e"><rect class="f" width="29.31" height="29.061" transform="translate(-0.102 0.022)"/></g></g></g><rect class="g" width="27.055" height="4.966" transform="translate(2.277 37.391)"/><text class="h" transform="translate(0.219 42.075)"><tspan x="0" y="0">94255</tspan></text></g></g></g></svg>