<svg xmlns="http://www.w3.org/2000/svg" xmlns:xlink="http://www.w3.org/1999/xlink" width="28" height="28" viewBox="0 0 28 28"><defs><linearGradient id="a" x1="0.212" x2="0.899" y2="1" gradientUnits="objectBoundingBox"><stop offset="0" stop-color="#c7f9b1"/><stop offset="1" stop-color="#2dcb36"/></linearGradient><linearGradient id="b" x1="0.5" x2="0.5" y2="1" gradientUnits="objectBoundingBox"><stop offset="0" stop-color="#fff" stop-opacity="0.678"/><stop offset="1" stop-color="#fff"/></linearGradient></defs><g transform="translate(-327 -602)"><rect width="28" height="28" rx="10" transform="translate(327 602)" fill="url(#a)"/><path d="M14.941,9.857a4.2,4.2,0,0,0-1.963-2,5.4,5.4,0,0,0-4.842.019,4.015,4.015,0,0,0-2.145,2.642,3.393,3.393,0,0,0,.432,2.514,4.635,4.635,0,0,0,3.155,2.062,5.81,5.81,0,0,0,2.753-.181c.534.207,1.01.542,1.528.791-.134-.449-.277-.892-.429-1.334A4.314,4.314,0,0,0,14.855,12.8,3.412,3.412,0,0,0,14.941,9.857Zm-6.3-6.008a6.42,6.42,0,0,0-5.259-.409A5.352,5.352,0,0,0,.625,5.61,4.071,4.071,0,0,0,.117,8.731a4.78,4.78,0,0,0,2.07,2.8c-.19.54-.371,1.078-.543,1.622.619-.324,1.238-.662,1.857-.991a6.894,6.894,0,0,0,2.323.329,3.909,3.909,0,0,1-.162-1.873A3.975,3.975,0,0,1,6.929,8.363,5.489,5.489,0,0,1,11.052,7.01,4.8,4.8,0,0,0,8.625,3.849h.017Zm1.1,6.34a.625.625,0,1,1-.8-.807A.632.632,0,0,1,9.742,10.189Zm3.043.058a.639.639,0,0,1-1,.171.95.95,0,0,1-.218-.463.7.7,0,0,1,.59-.606.636.636,0,0,1,.619.9h.01Zm-4.541-4.1a.918.918,0,1,1,0-.008v.008ZM4.4,6.306a.78.78,0,1,1-1.016-.922A.784.784,0,0,1,4.4,6.306Z" transform="translate(333.001 606.94)" fill="url(#b)"/></g></svg>