<svg xmlns="http://www.w3.org/2000/svg" width="38.399" height="24.436" viewBox="0 0 38.399 24.436"><path d="M13.718,17.972a5.236,5.236,0,1,1,5.236-5.236A5.214,5.214,0,0,1,13.718,17.972Zm13.963,0a5.236,5.236,0,1,1,5.236-5.236A5.214,5.214,0,0,1,27.681,17.972Zm0,3.491c4.067,0,12.218,2.042,12.218,6.109v4.364H15.463V27.572C15.463,23.505,23.614,21.463,27.681,21.463Zm-13.963,0c.506,0,1.082.035,1.693.087a7.365,7.365,0,0,0-3.438,6.022v4.364H1.5V27.572C1.5,23.505,9.651,21.463,13.718,21.463Z" transform="translate(-1.5 -7.5)" fill="#ed702d"/></svg>