<svg xmlns="http://www.w3.org/2000/svg" width="18" height="11.455" viewBox="0 0 18 11.455"><path d="M13.773,12.409a2.455,2.455,0,1,0-2.455-2.455A2.444,2.444,0,0,0,13.773,12.409Zm-6.545,0A2.455,2.455,0,1,0,4.773,9.955,2.444,2.444,0,0,0,7.227,12.409Zm0,1.636C5.321,14.045,1.5,15,1.5,16.909v2.045H12.955V16.909C12.955,15,9.134,14.045,7.227,14.045Zm6.545,0c-.237,0-.507.016-.794.041a3.453,3.453,0,0,1,1.612,2.823v2.045H19.5V16.909C19.5,15,15.679,14.045,13.773,14.045Z" transform="translate(-1.5 -7.5)" fill="#adadad"/></svg>