<svg xmlns="http://www.w3.org/2000/svg" width="36.158" height="28.41" viewBox="0 0 36.158 28.41"><path d="M4.009,14.625h.032A1.764,1.764,0,0,1,5.8,16.384a.179.179,0,0,0,.178.178h28.7a.179.179,0,0,0,.178-.178,1.764,1.764,0,0,1,1.759-1.759h.032a1.764,1.764,0,0,1,1.759,1.759v14.56A1.764,1.764,0,0,1,36.648,32.7h-.032a1.764,1.764,0,0,1-1.759-1.759v-.5a.324.324,0,0,0-.323-.323H6.124a.324.324,0,0,0-.323.323v.5A1.764,1.764,0,0,1,4.042,32.7H4.009A1.764,1.764,0,0,1,2.25,30.944V16.384A1.764,1.764,0,0,1,4.009,14.625Z" transform="translate(-2.25 -4.294)" fill="#ed702d"/><path d="M33.753,16.44H31.937a.324.324,0,0,1-.323-.323V15.068a1.3,1.3,0,0,0-1.291-1.291H22.454a1.3,1.3,0,0,0-1.291,1.291v1.049a.324.324,0,0,1-.323.323H18.9a.324.324,0,0,1-.323-.323V15.068a1.3,1.3,0,0,0-1.291-1.291H9.42a1.3,1.3,0,0,0-1.291,1.291v1.049a.324.324,0,0,1-.323.323H5.989a.648.648,0,0,1-.646-.646V8.208A2.59,2.59,0,0,1,7.926,5.625h23.89A2.59,2.59,0,0,1,34.4,8.208v7.587A.648.648,0,0,1,33.753,16.44Z" transform="translate(-1.793 -5.625)" fill="#ed702d"/></svg>