<svg xmlns="http://www.w3.org/2000/svg" width="21.013" height="19.391" viewBox="0 0 21.013 19.391"><g transform="translate(0 -19.73)"><g transform="translate(0.315 20.049)"><path d="M161.893,34.575h-2.019V31.715a2.188,2.188,0,0,0-4.375,0v2.861h-2.019V31.715a4.207,4.207,0,1,1,8.414,0v2.861Z" transform="translate(-147.487 -27.508)" fill="#685e68"/><path d="M158.3,27.55a4.214,4.214,0,0,0-3.593,4.162v2.861h-1.233V31.712a4.212,4.212,0,0,1,4.207-4.207A4.284,4.284,0,0,1,158.3,27.55Z" transform="translate(-147.484 -27.505)" fill="#554e56"/><path d="M138.686,191.247h-9.127a.653.653,0,0,1-.653-.653V182.14a.653.653,0,0,1,.653-.653h9.127a.653.653,0,0,1,.653.653v8.454A.653.653,0,0,1,138.686,191.247Z" transform="translate(-123.924 -175.16)" fill="#fe646f"/><path d="M227.871,244.839h-2.1a.2.2,0,0,1-.194-.217l.316-2.814a.248.248,0,0,0-.039-.162,1.148,1.148,0,1,1,1.931,0,.249.249,0,0,0-.039.163l.316,2.814A.2.2,0,0,1,227.871,244.839Z" transform="translate(-216.624 -231.151)" fill="#554e56"/><path d="M130.791,191.245h-1.233a.653.653,0,0,1-.653-.653v-8.453a.653.653,0,0,1,.653-.653h1.233a.653.653,0,0,0-.653.653v8.453A.653.653,0,0,0,130.791,191.245Z" transform="translate(-123.923 -175.158)" fill="#fd4755"/><path d="M27.071,335.875H8.665a1,1,0,0,1-.995-.995V330.5a1,1,0,0,1,.995-.995H27.071a1,1,0,0,1,.995.995v4.376A1,1,0,0,1,27.071,335.875Z" transform="translate(-7.67 -317.1)" fill="#a2f4c1"/><path d="M9.892,335.871H8.66a.994.994,0,0,1-.995-.994V330.5a1,1,0,0,1,.995-.995H9.892a1,1,0,0,0-.995.995v4.376A.994.994,0,0,0,9.892,335.871Z" transform="translate(-7.665 -317.096)" fill="#78d0b1"/></g><g transform="translate(0 19.73)"><path d="M45.7,370.085a.308.308,0,0,0,.308-.308v-.986l.853.493a.308.308,0,0,0,.308-.534l-.853-.493.853-.493a.308.308,0,0,0-.308-.534l-.853.493v-.986a.308.308,0,0,0-.616,0v.986l-.853-.493a.308.308,0,0,0-.308.534l.853.493-.853.493a.308.308,0,1,0,.308.534l.853-.493v.985A.308.308,0,0,0,45.7,370.085Z" transform="translate(-42.27 -352.184)"/><path d="M273.571,369.171a.308.308,0,0,0,.421.113l.853-.493v.986a.308.308,0,0,0,.616,0v-.986l.853.493a.308.308,0,1,0,.308-.534l-.853-.493.853-.493a.308.308,0,0,0-.308-.534l-.853.493v-.986a.308.308,0,0,0-.616,0v.986l-.853-.493a.308.308,0,0,0-.308.534l.853.493-.853.493a.308.308,0,0,0-.113.421Z" transform="translate(-262.291 -352.184)"/><path d="M158.846,369.174a.308.308,0,0,0,.421.113l.853-.493v.986a.308.308,0,1,0,.616,0v-.985l.853.493a.308.308,0,1,0,.308-.534l-.853-.493.853-.493a.308.308,0,1,0-.308-.534l-.853.493v-.986a.308.308,0,0,0-.616,0v.986l-.853-.493a.308.308,0,1,0-.308.534l.854.493-.854.493A.308.308,0,0,0,158.846,369.174Z" transform="translate(-152.28 -352.187)"/><path d="M388.3,369.174a.308.308,0,0,0,.421.113l.853-.493v.986a.308.308,0,1,0,.616,0v-.985l.854.493a.308.308,0,0,0,.308-.534l-.853-.493.853-.493a.308.308,0,0,0-.308-.534l-.853.493v-.986a.308.308,0,0,0-.616,0v.986l-.853-.493a.308.308,0,0,0-.308.534l.853.493-.853.493A.308.308,0,0,0,388.3,369.174Z" transform="translate(-372.301 -352.187)"/><path d="M19.71,32.139H16.031V29.19a.308.308,0,1,0-.616,0v2.949H11.906l-.164-1.457a1.456,1.456,0,1,0-2.471,0l-.164,1.457H5.6V27.018a.345.345,0,0,1,.345-.345H15.07a.345.345,0,0,1,.345.345v.733a.308.308,0,1,0,.616,0v-.733a.962.962,0,0,0-.961-.961h-.048V24.245a4.515,4.515,0,1,0-9.03,0v1.812H5.943a.962.962,0,0,0-.961.961v5.121H1.3a1.3,1.3,0,0,0-1.3,1.3v4.376a1.3,1.3,0,0,0,1.3,1.3H3.435a.308.308,0,0,0,0-.616H1.3a.687.687,0,0,1-.687-.687V33.442a.687.687,0,0,1,.687-.687H19.71a.687.687,0,0,1,.687.687v4.376a.687.687,0,0,1-.687.687H4.873a.308.308,0,1,0,0,.616H19.71a1.3,1.3,0,0,0,1.3-1.3V33.442A1.3,1.3,0,0,0,19.71,32.139Zm-7.324-6.082H8.627V24.245a1.879,1.879,0,1,1,3.759,0ZM6.608,24.245a3.9,3.9,0,1,1,7.8,0v1.812H13V24.245a2.5,2.5,0,0,0-4.992,0v1.812h-1.4ZM9.8,30.366a.836.836,0,0,1-.132-.505.848.848,0,0,1,.784-.786.839.839,0,0,1,.761,1.291.562.562,0,0,0-.086.364l.159,1.41H9.727l.159-1.411a.558.558,0,0,0-.086-.362Z" transform="translate(0 -19.73)"/></g></g></svg>