<svg xmlns="http://www.w3.org/2000/svg" width="19.539" height="20" viewBox="0 0 19.539 20">
  <path id="PoolIcon" d="M.488,19.393H.977a2.119,2.119,0,0,0,1.712-.8,1.3,1.3,0,0,1,.97-.629h.5a1.3,1.3,0,0,1,.97.629,2.117,2.117,0,0,0,1.712.8,2.119,2.119,0,0,0,1.712-.8,1.3,1.3,0,0,1,.97-.629h.5a1.3,1.3,0,0,1,.97.629,2.234,2.234,0,0,0,3.424,0,1.3,1.3,0,0,1,.97-.629h.5a1.3,1.3,0,0,1,.97.629,2.117,2.117,0,0,0,1.712.8h.488c.27,0,.488.32.488.714v1.429c0,.395-.219.714-.488.714h-.488a3.745,3.745,0,0,1-2.931-1.421,3.732,3.732,0,0,1-5.862,0,3.732,3.732,0,0,1-5.862,0A3.744,3.744,0,0,1,.977,22.25H.488c-.27,0-.488-.32-.488-.714V20.107C0,19.712.219,19.393.488,19.393ZM12.7,17.964V13.679H6.839v4.286a1.342,1.342,0,0,1-1.05-.421,2.7,2.7,0,0,0-.9-.807V6.536c0-.788-.438-1.429-.977-1.429s-.977.641-.977,1.429V7.25c0,.395-.219.714-.488.714H1.465c-.27,0-.488-.32-.488-.714V6.536c0-2.363,1.315-4.286,2.931-4.286S6.839,4.172,6.839,6.536v4.286H12.7V6.536c0-.788-.438-1.429-.977-1.429s-.977.641-.977,1.429V7.25c0,.395-.219.714-.488.714H9.281c-.27,0-.488-.32-.488-.714V6.536c0-2.363,1.315-4.286,2.931-4.286s2.931,1.922,2.931,4.286v10.2a2.7,2.7,0,0,0-.9.807A1.341,1.341,0,0,1,12.7,17.964Z" transform="translate(0 -2.25)" fill="#bab8b8"/>
</svg>
