<svg xmlns="http://www.w3.org/2000/svg" xmlns:xlink="http://www.w3.org/1999/xlink" width="28" height="28" viewBox="0 0 28 28"><defs><linearGradient id="a" x1="0.212" x2="0.899" y2="1" gradientUnits="objectBoundingBox"><stop offset="0" stop-color="#fecf92"/><stop offset="1" stop-color="#fd8d4b"/></linearGradient><linearGradient id="b" x1="0.5" x2="0.5" y2="1" gradientUnits="objectBoundingBox"><stop offset="0" stop-color="#fff" stop-opacity="0.678"/><stop offset="1" stop-color="#fff"/></linearGradient></defs><g transform="translate(-327 -670)"><rect width="28" height="28" rx="10" transform="translate(327 670)" fill="url(#a)"/><path d="M3.375,4.313v9.374a.939.939,0,0,0,.938.938h8.374a.939.939,0,0,0,.938-.938V4.313a.939.939,0,0,0-.938-.938H4.313A.937.937,0,0,0,3.375,4.313ZM5.79,12.347a.54.54,0,1,1,.465-.465A.538.538,0,0,1,5.79,12.347Zm0-2.812a.54.54,0,1,1,.465-.465A.538.538,0,0,1,5.79,9.534Zm0-2.812a.54.54,0,1,1,.465-.465A.538.538,0,0,1,5.79,6.722Zm6.689,5.467H7.612a.38.38,0,0,1-.379-.379h0a.38.38,0,0,1,.379-.379h4.867a.38.38,0,0,1,.379.379h0A.38.38,0,0,1,12.479,12.19Zm0-2.812H7.612A.38.38,0,0,1,7.233,9h0a.38.38,0,0,1,.379-.379h4.867A.38.38,0,0,1,12.858,9h0A.38.38,0,0,1,12.479,9.378Zm0-2.812H7.612a.38.38,0,0,1-.379-.379h0a.38.38,0,0,1,.379-.379h4.867a.38.38,0,0,1,.379.379h0A.38.38,0,0,1,12.479,6.566Z" transform="translate(332.625 674.625)" fill="url(#b)"/></g></svg>