<svg xmlns="http://www.w3.org/2000/svg" xmlns:xlink="http://www.w3.org/1999/xlink" width="28" height="28" viewBox="0 0 28 28"><defs><linearGradient id="a" x1="0.212" x2="0.899" y2="1" gradientUnits="objectBoundingBox"><stop offset="0" stop-color="#fb9ffc"/><stop offset="1" stop-color="#ff51b5"/></linearGradient><linearGradient id="b" x1="0.5" x2="0.5" y2="1" gradientUnits="objectBoundingBox"><stop offset="0" stop-color="#fff" stop-opacity="0.678"/><stop offset="1" stop-color="#fff"/></linearGradient></defs><g transform="translate(-327 -398)"><rect width="28" height="28" rx="10" transform="translate(327 398)" fill="url(#a)"/><g transform="translate(314.603 404.809)"><path d="M22.041,247.731h.819v1.637h.819v-4.912h5.731v1.4a3.669,3.669,0,0,1,.409.635,3.668,3.668,0,0,1,.409-.635v-1.4h1.637V242H21.222v7.368h.819Zm8.187-4.912h.819v.819h-.819Zm-1.637,0h.819v.819H28.59Zm-1.637,0h.819v.819h-.819Zm-1.637,0h.819v.819h-.819Zm-1.637,0H24.5v.819h-.819Zm-1.637,0h.819v.819h-.819Zm0,1.637h.819v.819h-.819Zm0,1.637h.819v.819h-.819Z" transform="translate(0 -235.396)" fill="url(#b)"/><path d="M182.2,366.093h3.275v-1.228A2.865,2.865,0,0,0,182.609,362h-.943l1.125.75a2.336,2.336,0,0,1,.909,1.209,2.028,2.028,0,0,0-1.091-.321H182.2v.819h.409a1.226,1.226,0,0,1,1.153.819H182.2Z" transform="translate(-156.066 -352.121)" fill="url(#b)"/><path d="M353.905,362.75l1.125-.75h-.943a2.865,2.865,0,0,0-2.865,2.865v1.228H354.5v-.819h-1.562a1.226,1.226,0,0,1,1.153-.819h.409v-.819h-.409a2.028,2.028,0,0,0-1.091.321A2.336,2.336,0,0,1,353.905,362.75Z" transform="translate(-320.994 -352.121)" fill="url(#b)"/><path d="M171.222,182h2.456v.819h-2.456Z" transform="translate(-145.907 -177.033)" fill="url(#b)"/><path d="M59.494,5.785V3.3h.816L55.81,0l-4.5,3.3h.816V5.785h1.637V4.148h4.093V5.785Z" transform="translate(-29.267)" fill="url(#b)"/></g></g></svg>