<svg xmlns="http://www.w3.org/2000/svg" width="19.539" height="20" viewBox="0 0 19.539 20">
  <path id="Shower" d="M14.87,6.875,8.838,13.931a.825.825,0,0,1-1.3,0l-.432-.505a1.2,1.2,0,0,1,0-1.515l0,0a5.685,5.685,0,0,1-.129-6.267A2.641,2.641,0,0,0,5.41,5.107,3.253,3.253,0,0,0,2.442,8.579V22.25H0V8.579C0,5.089,2.427,2.25,5.41,2.25A4.99,4.99,0,0,1,9.068,3.921a3.813,3.813,0,0,1,4.071.939l0,0a.825.825,0,0,1,1.3,0l.432.505A1.2,1.2,0,0,1,14.87,6.875Zm-.216,3.232a.618.618,0,1,1-.611-.714A.669.669,0,0,1,14.654,10.107Zm1.221,0a.618.618,0,1,1,.611.714A.669.669,0,0,1,15.875,10.107Zm3.664,0a.618.618,0,1,1-.611-.714A.669.669,0,0,1,19.539,10.107Zm-6.106,1.429a.618.618,0,1,1-.611-.714A.669.669,0,0,1,13.433,11.536Zm1.832-.714a.723.723,0,1,1-.611.714A.669.669,0,0,1,15.265,10.821Zm3.053.714a.618.618,0,1,1-.611-.714A.669.669,0,0,1,18.318,11.536Zm-6.106,1.429a.618.618,0,1,1-.611-.714A.669.669,0,0,1,12.212,12.964Zm1.221,0a.618.618,0,1,1,.611.714A.669.669,0,0,1,13.433,12.964Zm3.664,0a.618.618,0,1,1-.611-.714A.669.669,0,0,1,17.1,12.964Zm-4.885,1.429a.618.618,0,1,1,.611.714A.669.669,0,0,1,12.212,14.393Zm3.664,0a.618.618,0,1,1-.611-.714A.669.669,0,0,1,15.875,14.393Zm-3.664,1.429a.618.618,0,1,1-.611-.714A.669.669,0,0,1,12.212,15.821Zm2.442,0a.618.618,0,1,1-.611-.714A.669.669,0,0,1,14.654,15.821ZM13.433,17.25a.618.618,0,1,1-.611-.714A.669.669,0,0,1,13.433,17.25Zm-1.221,1.429a.618.618,0,1,1-.611-.714A.669.669,0,0,1,12.212,18.679Z" transform="translate(0 -2.25)" fill="#ed702d"/>
</svg>
