<svg xmlns="http://www.w3.org/2000/svg" width="14.283" height="15.582" viewBox="0 0 14.283 15.582"><path d="M12.7,20.082h1.948a.326.326,0,0,0,.325-.325V4.825a.326.326,0,0,0-.325-.325H12.7a.326.326,0,0,0-.325.325V19.757A.326.326,0,0,0,12.7,20.082Z" transform="translate(-8.48 -4.5)" fill="#2d3447"/><path d="M5.95,26.742H7.9a.326.326,0,0,0,.325-.325V20.575A.326.326,0,0,0,7.9,20.25H5.95a.326.326,0,0,0-.325.325v5.843A.326.326,0,0,0,5.95,26.742Z" transform="translate(-5.625 -11.161)" fill="#2d3447"/><path d="M19.454,24.839h1.94a.327.327,0,0,0,.329-.329V16.079a.327.327,0,0,0-.329-.329h-1.94a.327.327,0,0,0-.329.329v8.432A.327.327,0,0,0,19.454,24.839Z" transform="translate(-11.334 -9.258)" fill="#2d3447"/><path d="M25.875,9.329V21.656a.327.327,0,0,0,.329.329h1.94a.327.327,0,0,0,.329-.329V9.329A.327.327,0,0,0,28.143,9H26.2A.327.327,0,0,0,25.875,9.329Z" transform="translate(-14.189 -6.403)" fill="#2d3447"/></svg>