<svg xmlns="http://www.w3.org/2000/svg" width="93" height="56" viewBox="0 0 93 56"><defs><style>.a{fill:#fff;stroke:#f5f4f4;}.b{fill:#02aa7c;}.c{fill:#502c84;}.d{stroke:none;}.e{fill:none;}</style></defs><g transform="translate(-0.275)"><g class="a" transform="translate(0.275)"><rect class="d" width="93" height="56" rx="9"/><rect class="e" x="0.5" y="0.5" width="92" height="55" rx="8.5"/></g><g transform="translate(12.373 15.562)"><path class="b" d="M322.862,228.039v-11.5h1.949v.922a3.146,3.146,0,0,1,2.564-1.144c2.246,0,3.857,1.791,3.857,4.355s-1.621,4.387-3.857,4.387a3.147,3.147,0,0,1-2.564-1.166v4.143h-1.949Zm1.95-8.423v2.119a2.412,2.412,0,0,0,2.225,1.483c1.293,0,2.162-.964,2.162-2.554,0-1.568-.869-2.522-2.162-2.522a2.386,2.386,0,0,0-2.225,1.473" transform="translate(-274.854 -211.966)"/><path class="b" d="M381.415,223.532a2.449,2.449,0,0,1,2.31-2.554l3.316-.424v-.413a.666.666,0,0,0-.72-.763h-4.164v-1.769h4.238c1.685,0,2.606.826,2.606,2.289v5.986h-1.971v-1.007a3.192,3.192,0,0,1-2.734,1.261,2.612,2.612,0,0,1-2.882-2.607m3.359,1.017a2.427,2.427,0,0,0,2.257-1.388v-1.038l-2.532.35c-.7.1-1.091.466-1.091,1.07,0,.646.5,1.007,1.367,1.007" transform="translate(-323.775 -213.043)"/><path class="b" d="M434.284,227.345h1.42a.9.9,0,0,0,.964-.731l.254-.731-3.009-8.275h2.034l1.875,5.764h.042l1.791-5.764h2l-3.3,9.5c-.445,1.3-1.038,2-2.49,2h-1.589v-1.769Z" transform="translate(-367.638 -213.042)"/><path class="c" d="M38.152,211.611a7.593,7.593,0,0,0,5.361-1.9,4.915,4.915,0,0,0,1.462-3.56,4.61,4.61,0,0,0-1.356-3.316A7.086,7.086,0,0,0,39.89,201l-2.606-.509c-1.081-.2-1.7-.742-1.7-1.494,0-.985.954-1.663,2.479-1.663a3.217,3.217,0,0,1,2.31.848,2.565,2.565,0,0,1,.646,1.388l3.761-.848a4.644,4.644,0,0,0-1.388-2.818,7.6,7.6,0,0,0-5.372-1.992,7.352,7.352,0,0,0-4.99,1.759,4.949,4.949,0,0,0-1.589,3.666,4.216,4.216,0,0,0,1.219,3.115,7.424,7.424,0,0,0,3.56,1.8l2.575.615c1.293.307,1.865.784,1.865,1.632,0,1.049-.954,1.663-2.511,1.663a3.487,3.487,0,0,1-2.606-.985,2.367,2.367,0,0,1-.678-1.558L31,206.472a4.836,4.836,0,0,0,1.462,2.988,7.847,7.847,0,0,0,5.69,2.151m28.629,0a8.043,8.043,0,0,0,5.764-2.2,7.535,7.535,0,0,0,2.034-3.422l-3.963-1.324a3.765,3.765,0,0,1-1.049,1.759,3.853,3.853,0,0,1-2.787,1.049,4.288,4.288,0,0,1-3.02-1.219,4.916,4.916,0,0,1-1.261-3.5,4.862,4.862,0,0,1,1.261-3.5,4.124,4.124,0,0,1,2.988-1.187,3.6,3.6,0,0,1,2.681,1.017,4.317,4.317,0,0,1,1.017,1.8l4.037-1.356a7.717,7.717,0,0,0-1.9-3.359,8.255,8.255,0,0,0-5.933-2.267,8.567,8.567,0,0,0-6.135,2.479,9.272,9.272,0,0,0,.064,12.757,8.662,8.662,0,0,0,6.2,2.469m-13.7,0a5.666,5.666,0,0,0,3.56-1.017v-3.666a3.916,3.916,0,0,1-2.278.678,1.9,1.9,0,0,1-2.2-2.236V189.848H47.677v4.577h8.953v4.344H47.677v7.7A5.181,5.181,0,0,0,49,210.17a5.675,5.675,0,0,0,4.079,1.441" transform="translate(-31 -189.848)"/></g></g></svg>