<svg xmlns="http://www.w3.org/2000/svg" width="89.588" height="63.327" viewBox="0 0 89.588 63.327">
  <path id="Swim" d="M43.419,60.335c-3.015-2.943-4.8-2-8.254.241-3.272,2.135-7.756,5.057-13.17-.241-3.019-2.943-4.8-2-8.254.241-3.272,2.135-7.751,5.057-13.17-.241a1.874,1.874,0,0,1,0-2.691,1.983,1.983,0,0,1,2.754,0c3.022,2.951,4.815,2,8.254-.239,3.275-2.144,7.759-5.057,13.17.239,3.022,2.951,4.814,2,8.254-.239,3.275-2.144,7.756-5.057,13.17.239,3.022,2.951,4.814,2,8.254-.239,3.272-2.144,7.754-5.057,13.17.239,3.022,2.951,4.81,2,8.253-.239,3.277-2.144,7.756-5.057,13.17.239a1.881,1.881,0,0,1,0,2.691,1.993,1.993,0,0,1-2.753,0c-3.015-2.943-4.8-2-8.254.241-1.9,1.241-4.223,2.749-6.895,2.749-1.913,0-4.012-.782-6.276-2.99-3.015-2.943-4.8-2-8.254.241-1.9,1.243-4.218,2.752-6.888,2.752C47.783,63.328,45.682,62.549,43.419,60.335Zm0-15.987c-3.019-2.952-4.815-2-8.254.24-3.275,2.144-7.763,5.057-13.17-.24-3.022-2.952-4.814-2-8.254.24-3.275,2.144-7.759,5.057-13.17-.24a1.876,1.876,0,0,1,0-2.692,1.983,1.983,0,0,1,2.754,0c3.015,2.951,4.8,2.006,8.254-.239,3.272-2.144,7.748-5.057,13.17.239,3.019,2.951,4.8,2.006,8.254-.239,3.272-2.144,7.752-5.057,13.17.239,3.019,2.951,4.8,2.006,8.254-.239,3.268-2.144,7.751-5.057,13.17.239,3.019,2.951,4.8,2.006,8.253-.239,3.273-2.144,7.748-5.057,13.17.239a1.882,1.882,0,0,1,0,2.692,1.981,1.981,0,0,1-2.753,0c-3.02-2.952-4.815-2-8.254.24-1.909,1.241-4.227,2.749-6.895,2.749-1.913,0-4.012-.773-6.276-2.989-3.022-2.952-4.815-2-8.254.24-1.9,1.247-4.219,2.755-6.887,2.755C47.783,47.343,45.682,46.563,43.419,44.348Zm28.643-9.021V27.982H56.48v7.345a1.948,1.948,0,0,1-3.9,0V13.893C52.584,6.1,59.085,0,67.387,0a1.933,1.933,0,0,1,1.948,1.9,1.927,1.927,0,0,1-1.948,1.9c-5.8,0-10.268,3.779-10.844,8.944H72.109C72.707,5.512,78.971,0,86.864,0a1.932,1.932,0,0,1,1.948,1.9,1.926,1.926,0,0,1-1.948,1.9c-6.217,0-10.907,4.345-10.907,10.086V35.327a1.948,1.948,0,0,1-3.895,0Zm0-11.153V16.56H56.48v7.614Z" fill="#3f4663"/>
</svg>
