<svg xmlns="http://www.w3.org/2000/svg" width="19.539" height="20" viewBox="0 0 19.539 20">
  <path id="TentIcon" d="M.488,17.5h.753L8.562,4.6,6.932,1.726A.745.745,0,0,1,7.04.853L7.831.119a.424.424,0,0,1,.682.139L9.769,2.473,11.026.258a.424.424,0,0,1,.682-.139l.79.734a.744.744,0,0,1,.108.873L10.976,4.6,18.3,17.5h.753a.569.569,0,0,1,.488.625v1.25A.569.569,0,0,1,19.05,20H.488A.569.569,0,0,1,0,19.375v-1.25A.569.569,0,0,1,.488,17.5Zm9.281-6.25L6.217,17.5h7.1Z" transform="translate(0 0)" fill="#adadad"/>
</svg>
