<svg xmlns="http://www.w3.org/2000/svg" width="36" height="36" viewBox="0 0 36 36"><defs><style>.a{fill-rule:evenodd;}.b,.d{fill:none;}.b{stroke:#000;stroke-width:3px;}.c{stroke:none;}</style></defs><g transform="translate(-0.156 -0.428)"><g transform="translate(11.524 8.541)"><path class="a" d="M8.178,3a2.178,2.178,0,0,1,2.178,2.178V8.444h6.533a2.178,2.178,0,0,1,0,4.356H10.356v2.178a3.267,3.267,0,0,0,3.267,3.267h3.267a2.178,2.178,0,0,1,0,4.356H13.622A7.622,7.622,0,0,1,6,14.978v-9.8A2.178,2.178,0,0,1,8.178,3Z" transform="translate(-6 -3)"/></g><g class="b" transform="translate(0.156 0.428)"><rect class="c" width="36" height="36" rx="10"/><rect class="d" x="1.5" y="1.5" width="33" height="33" rx="8.5"/></g></g></svg>