<svg xmlns="http://www.w3.org/2000/svg" width="40.957" height="41.257" viewBox="0 0 40.957 41.257"><g transform="translate(0.82 0.719)"><path d="M41.918,22.013a19.582,19.582,0,0,1-19.6,19.6A18.739,18.739,0,0,1,11.677,38.49L2.709,41.618l2.5-9.8A19.939,19.939,0,0,1,2.5,21.8,19.582,19.582,0,0,1,22.1,2.2,19.939,19.939,0,0,1,41.918,22.013Z" transform="translate(-2.5 -2.2)" fill="#fff" stroke="#fff" stroke-miterlimit="10" stroke-width="1.438"/><path d="M27.7,26.139l.626-4.38a1.147,1.147,0,0,0-.626-1.043l-4.8-1.668a.762.762,0,0,0-1.043.417l-1.877,2.5a14.662,14.662,0,0,1-7.717-6.883l2.294-2.294c.417-.209.417-.834.209-1.251L12.477,7.16a1,1,0,0,0-1.251-.417L7.055,7.994c-.417.209-.834.626-.626,1.043A19.183,19.183,0,0,0,26.868,26.973h0C27.285,26.764,27.7,26.556,27.7,26.139Z" transform="translate(1.705 2.643)" fill="#ed702d"/></g></svg>