<svg xmlns="http://www.w3.org/2000/svg" width="22.571" height="18.5" viewBox="0 0 22.571 18.5">
  <path id="wifiIcon" d="M22.391,7.324a14.691,14.691,0,0,0-22.212,0,.736.736,0,0,0-.012.949l1.208,1.4a.514.514,0,0,0,.79.016,12.116,12.116,0,0,1,18.242,0,.514.514,0,0,0,.79-.016l1.208-1.4a.737.737,0,0,0-.013-.949Zm-11.106,8.14a2.473,2.473,0,0,0-2.257,2.643,2.473,2.473,0,0,0,2.257,2.643,2.473,2.473,0,0,0,2.257-2.643A2.473,2.473,0,0,0,11.285,15.464Zm7.148-3.452a9.673,9.673,0,0,0-14.3,0,.731.731,0,0,0-.02.956l1.215,1.4a.516.516,0,0,0,.778.033,7.087,7.087,0,0,1,10.351,0,.516.516,0,0,0,.778-.033l1.215-1.4A.731.731,0,0,0,18.433,12.012Z" transform="translate(0 -2.25)" fill="#ed702d"/>
</svg>
